<svg width="132mm" height="102.079mm" viewBox="0 0 132 102.079" xmlns="http://www.w3.org/2000/svg"><g id="svgGroup" stroke-linecap="round" fill-rule="evenodd" font-size="9pt" stroke="#000" stroke-width="0.25mm" fill="none" style="stroke:#000;stroke-width:0.25mm;fill:none"><path d="M 131.717 78.593 L 118.735 101.079 A 2 2 0 0 1 116.003 101.811 L 100.415 92.811 L 100 93.62 L 81 93.62 L 81 91.72 L 46.994 91.626 A 2 2 0 0 1 45 89.626 L 45 78.042 A 2 2 0 0 0 42.998 76.042 L 20 76.07 L 20 77.97 L 2.01 78.06 A 2 2 0 0 1 0 76.06 L 0 10.07 A 2 2 0 0 1 2 8.07 L 18 8.07 L 18 6.17 L 36 6.07 L 36 4.07 A 2 2 0 0 1 38 2.07 L 54 2.07 L 54 0 L 72 0 A 2 2 0 0 1 74 2 L 74 2.47 L 92 2.57 L 92 4.47 L 130.005 4.565 A 2 2 0 0 1 132 6.565 L 131.985 77.593 A 2 2 0 0 1 131.717 78.593 Z" vector-effect="non-scaling-stroke"/></g></svg>