0
SECTION
2
HEADER
9
$INSUNITS
70
4
0
ENDSEC
0
SECTION
2
TABLES
0
TABLE
2
LTYPE
0
LTYPE
72
65
70
64
2
CONTINUOUS
3
______
73
0
40
0
0
ENDTAB
0
TABLE
2
LAYER
0
ENDTAB
0
ENDSEC
0
SECTION
2
ENTITIES
0
LINE
8
0
10
125.0306173
20
-12.0953046
11
108.8055728
21
-32.8703903
0
LINE
8
0
10
106.2293219
20
-33.3714117
11
90.414746
21
-24.240862
0
LINE
8
0
10
90.414746
20
-24.240862
11
90
21
-25.05
0
LINE
8
0
10
90
20
-25.05
11
71
21
-25.05
0
LINE
8
0
10
71
20
-25.05
11
71
21
-23.15
0
LINE
8
0
10
71
20
-23.15
11
36.9944444
21
-23.0555401
0
LINE
8
0
10
35
20
-21.0555478
11
35
21
-9.4724015
0
LINE
8
0
10
32.9976
20
-7.4724029
11
10
21
-7.5
0
LINE
8
0
10
10
20
-7.5
11
10
21
-9.4
0
LINE
8
0
10
10
20
-9.4
11
-7.9900002
21
-9.48995
0
LINE
8
0
10
-10
20
-7.489975
11
-10
21
58.5
0
LINE
8
0
10
-8
20
60.5
11
8
21
60.5
0
LINE
8
0
10
8
20
60.5
11
8
21
62.4
0
LINE
8
0
10
8
20
62.4
11
26
21
62.5
0
LINE
8
0
10
26
20
62.5
11
26
21
64.5
0
LINE
8
0
10
28
20
66.5
11
44
21
66.5
0
LINE
8
0
10
44
20
66.5
11
44
21
68.57
0
LINE
8
0
10
44
20
68.57
11
62
21
68.57
0
LINE
8
0
10
64
20
66.57
11
64
21
66.1
0
LINE
8
0
10
64
20
66.1
11
82
21
66
0
LINE
8
0
10
82
20
66
11
82
21
64.1
0
LINE
8
0
10
82
20
64.1
11
123.9899504
21
64.0045683
0
LINE
8
0
10
125.9853519
20
61.9899987
11
125.4543134
21
-10.87885
0
ARC
8
0
10
107.2293219
20
-31.6393609
40
2
50
239.9999999
51
322.010671
0
ARC
8
0
10
37
20
-21.0555478
40
2
50
180
51
269.8408436
0
ARC
8
0
10
33
20
-9.4724015
40
2
50
0
51
90.068755
0
ARC
8
0
10
-8
20
-7.489975
40
2
50
180
51
270.2864744
0
ARC
8
0
10
-8
20
58.5
40
2
50
90
51
180
0
ARC
8
0
10
28
20
64.5
40
2
50
90
51
180
0
ARC
8
0
10
62
20
66.57
40
2
50
0
51
90
0
ARC
8
0
10
123.985405
20
62.0045735
40
2
50
359.582459
51
89.8697838
0
ARC
8
0
10
123.4543665
20
-10.8642752
40
2
50
322.010671
51
359.582459
0
ENDSEC
0
EOF