0
SECTION
2
HEADER
9
$INSUNITS
70
4
0
ENDSEC
0
SECTION
2
TABLES
0
TABLE
2
LTYPE
0
LTYPE
72
65
70
64
2
CONTINUOUS
3
______
73
0
40
0
0
ENDTAB
0
TABLE
2
LAYER
0
ENDTAB
0
ENDSEC
0
SECTION
2
ENTITIES
0
LINE
8
0
10
125.0306173
20
-12.0953046
11
108.8055728
21
-32.8703903
0
LINE
8
0
10
106.2293219
20
-33.3714117
11
90.414746
21
-24.240862
0
LINE
8
0
10
90.414746
20
-24.240862
11
90
21
-25.05
0
LINE
8
0
10
90
20
-25.05
11
71
21
-25.05
0
LINE
8
0
10
71
20
-25.05
11
71
21
-23.15
0
LINE
8
0
10
71
20
-23.15
11
36.9944444
21
-23.0555401
0
LINE
8
0
10
35
20
-21.0555478
11
35
21
-9.4724015
0
LINE
8
0
10
32.9976
20
-7.4724029
11
10
21
-7.5
0
LINE
8
0
10
10
20
-7.5
11
10
21
-9.4
0
LINE
8
0
10
10
20
-9.4
11
-7.9900002
21
-9.48995
0
LINE
8
0
10
-10
20
-7.489975
11
-10
21
58.5
0
LINE
8
0
10
-8
20
60.5
11
8
21
60.5
0
LINE
8
0
10
8
20
60.5
11
8
21
62.4
0
LINE
8
0
10
8
20
62.4
11
26
21
62.5
0
LINE
8
0
10
26
20
62.5
11
26
21
64.5
0
LINE
8
0
10
28
20
66.5
11
44
21
66.5
0
LINE
8
0
10
44
20
66.5
11
44
21
68.57
0
LINE
8
0
10
44
20
68.57
11
62
21
68.57
0
LINE
8
0
10
64
20
66.57
11
64
21
66.1
0
LINE
8
0
10
64
20
66.1
11
82
21
66
0
LINE
8
0
10
82
20
66
11
82
21
64.1
0
LINE
8
0
10
82
20
64.1
11
123.9899504
21
64.0045683
0
LINE
8
0
10
125.9853519
20
61.9899987
11
125.4543134
21
-10.87885
0
ARC
8
0
10
107.2293219
20
-31.6393609
40
2
50
239.9999999
51
322.010671
0
ARC
8
0
10
37
20
-21.0555478
40
2
50
180
51
269.8408436
0
ARC
8
0
10
33
20
-9.4724015
40
2
50
0
51
90.068755
0
ARC
8
0
10
-8
20
-7.489975
40
2
50
180
51
270.2864744
0
ARC
8
0
10
-8
20
58.5
40
2
50
90
51
180
0
ARC
8
0
10
28
20
64.5
40
2
50
90
51
180
0
ARC
8
0
10
62
20
66.57
40
2
50
0
51
90
0
ARC
8
0
10
123.985405
20
62.0045735
40
2
50
359.582459
51
89.8697838
0
ARC
8
0
10
123.4543665
20
-10.8642752
40
2
50
322.010671
51
359.582459
0
LINE
8
0
10
-8.75
20
-8.25
11
8.75
21
-8.25
0
LINE
8
0
10
8.75
20
-8.25
11
8.75
21
8.25
0
LINE
8
0
10
8.75
20
8.25
11
-8.75
21
8.25
0
LINE
8
0
10
-8.75
20
8.25
11
-8.75
21
-8.25
0
LINE
8
0
10
-8.75
20
8.75
11
8.75
21
8.75
0
LINE
8
0
10
8.75
20
8.75
11
8.75
21
25.25
0
LINE
8
0
10
8.75
20
25.25
11
-8.75
21
25.25
0
LINE
8
0
10
-8.75
20
25.25
11
-8.75
21
8.75
0
LINE
8
0
10
-8.75
20
25.75
11
8.75
21
25.75
0
LINE
8
0
10
8.75
20
25.75
11
8.75
21
42.25
0
LINE
8
0
10
8.75
20
42.25
11
-8.75
21
42.25
0
LINE
8
0
10
-8.75
20
42.25
11
-8.75
21
25.75
0
LINE
8
0
10
-8.75
20
42.75
11
8.75
21
42.75
0
LINE
8
0
10
8.75
20
42.75
11
8.75
21
59.25
0
LINE
8
0
10
8.75
20
59.25
11
-8.75
21
59.25
0
LINE
8
0
10
-8.75
20
59.25
11
-8.75
21
42.75
0
LINE
8
0
10
9.25
20
-6.25
11
26.75
21
-6.25
0
LINE
8
0
10
26.75
20
-6.25
11
26.75
21
10.25
0
LINE
8
0
10
26.75
20
10.25
11
9.25
21
10.25
0
LINE
8
0
10
9.25
20
10.25
11
9.25
21
-6.25
0
LINE
8
0
10
9.25
20
10.75
11
26.75
21
10.75
0
LINE
8
0
10
26.75
20
10.75
11
26.75
21
27.25
0
LINE
8
0
10
26.75
20
27.25
11
9.25
21
27.25
0
LINE
8
0
10
9.25
20
27.25
11
9.25
21
10.75
0
LINE
8
0
10
9.25
20
27.75
11
26.75
21
27.75
0
LINE
8
0
10
26.75
20
27.75
11
26.75
21
44.25
0
LINE
8
0
10
26.75
20
44.25
11
9.25
21
44.25
0
LINE
8
0
10
9.25
20
44.25
11
9.25
21
27.75
0
LINE
8
0
10
9.25
20
44.75
11
26.75
21
44.75
0
LINE
8
0
10
26.75
20
44.75
11
26.75
21
61.25
0
LINE
8
0
10
26.75
20
61.25
11
9.25
21
61.25
0
LINE
8
0
10
9.25
20
61.25
11
9.25
21
44.75
0
LINE
8
0
10
27.25
20
-2.25
11
44.75
21
-2.25
0
LINE
8
0
10
44.75
20
-2.25
11
44.75
21
14.25
0
LINE
8
0
10
44.75
20
14.25
11
27.25
21
14.25
0
LINE
8
0
10
27.25
20
14.25
11
27.25
21
-2.25
0
LINE
8
0
10
27.25
20
14.75
11
44.75
21
14.75
0
LINE
8
0
10
44.75
20
14.75
11
44.75
21
31.25
0
LINE
8
0
10
44.75
20
31.25
11
27.25
21
31.25
0
LINE
8
0
10
27.25
20
31.25
11
27.25
21
14.75
0
LINE
8
0
10
27.25
20
31.75
11
44.75
21
31.75
0
LINE
8
0
10
44.75
20
31.75
11
44.75
21
48.25
0
LINE
8
0
10
44.75
20
48.25
11
27.25
21
48.25
0
LINE
8
0
10
27.25
20
48.25
11
27.25
21
31.75
0
LINE
8
0
10
27.25
20
48.75
11
44.75
21
48.75
0
LINE
8
0
10
44.75
20
48.75
11
44.75
21
65.25
0
LINE
8
0
10
44.75
20
65.25
11
27.25
21
65.25
0
LINE
8
0
10
27.25
20
65.25
11
27.25
21
48.75
0
LINE
8
0
10
45.25
20
-0.75
11
62.75
21
-0.75
0
LINE
8
0
10
62.75
20
-0.75
11
62.75
21
15.75
0
LINE
8
0
10
62.75
20
15.75
11
45.25
21
15.75
0
LINE
8
0
10
45.25
20
15.75
11
45.25
21
-0.75
0
LINE
8
0
10
45.25
20
16.25
11
62.75
21
16.25
0
LINE
8
0
10
62.75
20
16.25
11
62.75
21
32.75
0
LINE
8
0
10
62.75
20
32.75
11
45.25
21
32.75
0
LINE
8
0
10
45.25
20
32.75
11
45.25
21
16.25
0
LINE
8
0
10
45.25
20
33.25
11
62.75
21
33.25
0
LINE
8
0
10
62.75
20
33.25
11
62.75
21
49.75
0
LINE
8
0
10
62.75
20
49.75
11
45.25
21
49.75
0
LINE
8
0
10
45.25
20
49.75
11
45.25
21
33.25
0
LINE
8
0
10
45.25
20
50.25
11
62.75
21
50.25
0
LINE
8
0
10
62.75
20
50.25
11
62.75
21
66.75
0
LINE
8
0
10
62.75
20
66.75
11
45.25
21
66.75
0
LINE
8
0
10
45.25
20
66.75
11
45.25
21
50.25
0
LINE
8
0
10
63.25
20
-2.75
11
80.75
21
-2.75
0
LINE
8
0
10
80.75
20
-2.75
11
80.75
21
13.75
0
LINE
8
0
10
80.75
20
13.75
11
63.25
21
13.75
0
LINE
8
0
10
63.25
20
13.75
11
63.25
21
-2.75
0
LINE
8
0
10
63.25
20
14.25
11
80.75
21
14.25
0
LINE
8
0
10
80.75
20
14.25
11
80.75
21
30.75
0
LINE
8
0
10
80.75
20
30.75
11
63.25
21
30.75
0
LINE
8
0
10
63.25
20
30.75
11
63.25
21
14.25
0
LINE
8
0
10
63.25
20
31.25
11
80.75
21
31.25
0
LINE
8
0
10
80.75
20
31.25
11
80.75
21
47.75
0
LINE
8
0
10
80.75
20
47.75
11
63.25
21
47.75
0
LINE
8
0
10
63.25
20
47.75
11
63.25
21
31.25
0
LINE
8
0
10
63.25
20
48.25
11
80.75
21
48.25
0
LINE
8
0
10
80.75
20
48.25
11
80.75
21
64.75
0
LINE
8
0
10
80.75
20
64.75
11
63.25
21
64.75
0
LINE
8
0
10
63.25
20
64.75
11
63.25
21
48.25
0
LINE
8
0
10
81.25
20
-4.75
11
98.75
21
-4.75
0
LINE
8
0
10
98.75
20
-4.75
11
98.75
21
11.75
0
LINE
8
0
10
98.75
20
11.75
11
81.25
21
11.75
0
LINE
8
0
10
81.25
20
11.75
11
81.25
21
-4.75
0
LINE
8
0
10
81.25
20
12.25
11
98.75
21
12.25
0
LINE
8
0
10
98.75
20
12.25
11
98.75
21
28.75
0
LINE
8
0
10
98.75
20
28.75
11
81.25
21
28.75
0
LINE
8
0
10
81.25
20
28.75
11
81.25
21
12.25
0
LINE
8
0
10
81.25
20
29.25
11
98.75
21
29.25
0
LINE
8
0
10
98.75
20
29.25
11
98.75
21
45.75
0
LINE
8
0
10
98.75
20
45.75
11
81.25
21
45.75
0
LINE
8
0
10
81.25
20
45.75
11
81.25
21
29.25
0
LINE
8
0
10
81.25
20
46.25
11
98.75
21
46.25
0
LINE
8
0
10
98.75
20
46.25
11
98.75
21
62.75
0
LINE
8
0
10
98.75
20
62.75
11
81.25
21
62.75
0
LINE
8
0
10
81.25
20
62.75
11
81.25
21
46.25
0
LINE
8
0
10
36.25
20
-21.8
11
53.75
21
-21.8
0
LINE
8
0
10
53.75
20
-21.8
11
53.75
21
-5.3
0
LINE
8
0
10
53.75
20
-5.3
11
36.25
21
-5.3
0
LINE
8
0
10
36.25
20
-5.3
11
36.25
21
-21.8
0
LINE
8
0
10
54.25
20
-21.8
11
71.75
21
-21.8
0
LINE
8
0
10
71.75
20
-21.8
11
71.75
21
-5.3
0
LINE
8
0
10
71.75
20
-5.3
11
54.25
21
-5.3
0
LINE
8
0
10
54.25
20
-5.3
11
54.25
21
-21.8
0
LINE
8
0
10
72.25
20
-23.8
11
89.75
21
-23.8
0
LINE
8
0
10
89.75
20
-23.8
11
89.75
21
-7.3
0
LINE
8
0
10
89.75
20
-7.3
11
72.25
21
-7.3
0
LINE
8
0
10
72.25
20
-7.3
11
72.25
21
-23.8
0
LINE
8
0
10
99.25
20
3.75
11
116.75
21
3.75
0
LINE
8
0
10
116.75
20
3.75
11
116.75
21
20.25
0
LINE
8
0
10
116.75
20
20.25
11
99.25
21
20.25
0
LINE
8
0
10
99.25
20
20.25
11
99.25
21
3.75
0
LINE
8
0
10
94.4972777
20
-19.6697096
11
109.6527223
21
-28.4197096
0
LINE
8
0
10
109.6527223
20
-28.4197096
11
117.9027223
21
-14.1302904
0
LINE
8
0
10
117.9027223
20
-14.1302904
11
102.7472777
21
-5.3802904
0
LINE
8
0
10
102.7472777
20
-5.3802904
11
94.4972777
21
-19.6697096
0
ENDSEC
0
EOF