<svg width="132mm" height="102.079mm" viewBox="0 0 132 102.079" xmlns="http://www.w3.org/2000/svg"><g id="svgGroup" stroke-linecap="round" fill-rule="evenodd" font-size="9pt" stroke="#000" stroke-width="0.25mm" fill="none" style="stroke:#000;stroke-width:0.25mm;fill:none"><path d="M 131.717 78.593 L 118.735 101.079 A 2 2 0 0 1 116.003 101.811 L 100.415 92.811 L 100 93.62 L 81 93.62 L 81 91.72 L 46.994 91.626 A 2 2 0 0 1 45 89.626 L 45 78.042 A 2 2 0 0 0 42.998 76.042 L 20 76.07 L 20 77.97 L 2.01 78.06 A 2 2 0 0 1 0 76.06 L 0 10.07 A 2 2 0 0 1 2 8.07 L 18 8.07 L 18 6.17 L 36 6.07 L 36 4.07 A 2 2 0 0 1 38 2.07 L 54 2.07 L 54 0 L 72 0 A 2 2 0 0 1 74 2 L 74 2.47 L 92 2.57 L 92 4.47 L 130.005 4.565 A 2 2 0 0 1 132 6.565 L 131.985 77.593 A 2 2 0 0 1 131.717 78.593 Z M 104.497 88.24 L 119.653 96.99 L 127.903 82.7 L 112.747 73.95 L 104.497 88.24 Z M 1.25 76.82 L 18.75 76.82 L 18.75 60.32 L 1.25 60.32 L 1.25 76.82 Z M 1.25 59.82 L 18.75 59.82 L 18.75 43.32 L 1.25 43.32 L 1.25 59.82 Z M 1.25 42.82 L 18.75 42.82 L 18.75 26.32 L 1.25 26.32 L 1.25 42.82 Z M 1.25 25.82 L 18.75 25.82 L 18.75 9.32 L 1.25 9.32 L 1.25 25.82 Z M 19.25 74.82 L 36.75 74.82 L 36.75 58.32 L 19.25 58.32 L 19.25 74.82 Z M 19.25 57.82 L 36.75 57.82 L 36.75 41.32 L 19.25 41.32 L 19.25 57.82 Z M 19.25 40.82 L 36.75 40.82 L 36.75 24.32 L 19.25 24.32 L 19.25 40.82 Z M 19.25 23.82 L 36.75 23.82 L 36.75 7.32 L 19.25 7.32 L 19.25 23.82 Z M 37.25 70.82 L 54.75 70.82 L 54.75 54.32 L 37.25 54.32 L 37.25 70.82 Z M 37.25 53.82 L 54.75 53.82 L 54.75 37.32 L 37.25 37.32 L 37.25 53.82 Z M 37.25 36.82 L 54.75 36.82 L 54.75 20.32 L 37.25 20.32 L 37.25 36.82 Z M 37.25 19.82 L 54.75 19.82 L 54.75 3.32 L 37.25 3.32 L 37.25 19.82 Z M 55.25 69.32 L 72.75 69.32 L 72.75 52.82 L 55.25 52.82 L 55.25 69.32 Z M 55.25 52.32 L 72.75 52.32 L 72.75 35.82 L 55.25 35.82 L 55.25 52.32 Z M 55.25 35.32 L 72.75 35.32 L 72.75 18.82 L 55.25 18.82 L 55.25 35.32 Z M 55.25 18.32 L 72.75 18.32 L 72.75 1.82 L 55.25 1.82 L 55.25 18.32 Z M 73.25 71.32 L 90.75 71.32 L 90.75 54.82 L 73.25 54.82 L 73.25 71.32 Z M 73.25 54.32 L 90.75 54.32 L 90.75 37.82 L 73.25 37.82 L 73.25 54.32 Z M 73.25 37.32 L 90.75 37.32 L 90.75 20.82 L 73.25 20.82 L 73.25 37.32 Z M 73.25 20.32 L 90.75 20.32 L 90.75 3.82 L 73.25 3.82 L 73.25 20.32 Z M 91.25 73.32 L 108.75 73.32 L 108.75 56.82 L 91.25 56.82 L 91.25 73.32 Z M 91.25 56.32 L 108.75 56.32 L 108.75 39.82 L 91.25 39.82 L 91.25 56.32 Z M 91.25 39.32 L 108.75 39.32 L 108.75 22.82 L 91.25 22.82 L 91.25 39.32 Z M 91.25 22.32 L 108.75 22.32 L 108.75 5.82 L 91.25 5.82 L 91.25 22.32 Z M 46.25 90.37 L 63.75 90.37 L 63.75 73.87 L 46.25 73.87 L 46.25 90.37 Z M 64.25 90.37 L 81.75 90.37 L 81.75 73.87 L 64.25 73.87 L 64.25 90.37 Z M 82.25 92.37 L 99.75 92.37 L 99.75 75.87 L 82.25 75.87 L 82.25 92.37 Z M 109.25 64.82 L 126.75 64.82 L 126.75 48.32 L 109.25 48.32 L 109.25 64.82 Z" vector-effect="non-scaling-stroke"/></g></svg>