<svg width="126.653mm" height="95.17mm" viewBox="0 0 126.653 95.17" xmlns="http://www.w3.org/2000/svg"><g id="svgGroup" stroke-linecap="round" fill-rule="evenodd" font-size="9pt" stroke="#000" stroke-width="0.25mm" fill="none" style="stroke:#000;stroke-width:0.25mm;fill:none"><path d="M 103.247 86.42 L 118.403 95.17 L 126.653 80.88 L 111.497 72.13 L 103.247 86.42 Z M 0 75 L 17.5 75 L 17.5 58.5 L 0 58.5 L 0 75 Z M 0 58 L 17.5 58 L 17.5 41.5 L 0 41.5 L 0 58 Z M 0 41 L 17.5 41 L 17.5 24.5 L 0 24.5 L 0 41 Z M 0 24 L 17.5 24 L 17.5 7.5 L 0 7.5 L 0 24 Z M 18 73 L 35.5 73 L 35.5 56.5 L 18 56.5 L 18 73 Z M 18 56 L 35.5 56 L 35.5 39.5 L 18 39.5 L 18 56 Z M 18 39 L 35.5 39 L 35.5 22.5 L 18 22.5 L 18 39 Z M 18 22 L 35.5 22 L 35.5 5.5 L 18 5.5 L 18 22 Z M 36 69 L 53.5 69 L 53.5 52.5 L 36 52.5 L 36 69 Z M 36 52 L 53.5 52 L 53.5 35.5 L 36 35.5 L 36 52 Z M 36 35 L 53.5 35 L 53.5 18.5 L 36 18.5 L 36 35 Z M 36 18 L 53.5 18 L 53.5 1.5 L 36 1.5 L 36 18 Z M 54 67.5 L 71.5 67.5 L 71.5 51 L 54 51 L 54 67.5 Z M 54 50.5 L 71.5 50.5 L 71.5 34 L 54 34 L 54 50.5 Z M 54 33.5 L 71.5 33.5 L 71.5 17 L 54 17 L 54 33.5 Z M 54 16.5 L 71.5 16.5 L 71.5 0 L 54 0 L 54 16.5 Z M 72 69.5 L 89.5 69.5 L 89.5 53 L 72 53 L 72 69.5 Z M 72 52.5 L 89.5 52.5 L 89.5 36 L 72 36 L 72 52.5 Z M 72 35.5 L 89.5 35.5 L 89.5 19 L 72 19 L 72 35.5 Z M 72 18.5 L 89.5 18.5 L 89.5 2 L 72 2 L 72 18.5 Z M 90 71.5 L 107.5 71.5 L 107.5 55 L 90 55 L 90 71.5 Z M 90 54.5 L 107.5 54.5 L 107.5 38 L 90 38 L 90 54.5 Z M 90 37.5 L 107.5 37.5 L 107.5 21 L 90 21 L 90 37.5 Z M 90 20.5 L 107.5 20.5 L 107.5 4 L 90 4 L 90 20.5 Z M 45 88.55 L 62.5 88.55 L 62.5 72.05 L 45 72.05 L 45 88.55 Z M 63 88.55 L 80.5 88.55 L 80.5 72.05 L 63 72.05 L 63 88.55 Z M 81 90.55 L 98.5 90.55 L 98.5 74.05 L 81 74.05 L 81 90.55 Z M 108 63 L 125.5 63 L 125.5 46.5 L 108 46.5 L 108 63 Z" vector-effect="non-scaling-stroke"/></g></svg>