<svg width="127.244mm" height="95.761mm" viewBox="0 0 127.244 95.761" xmlns="http://www.w3.org/2000/svg"><g id="svgGroup" stroke-linecap="round" fill-rule="evenodd" font-size="9pt" stroke="#000" stroke-width="0.25mm" fill="none" style="stroke:#000;stroke-width:0.25mm;fill:none"><path d="M 0 75.5 L 18 75.5 L 18 73.5 L 36 73.5 L 36 69.5 L 54 69.5 L 54 68 L 72 68 L 72 70 L 90 70 L 90 72 L 108 72 L 108 63.5 L 126 63.5 L 126 46.5 L 108 46.5 L 108 4 L 90 4 L 90 2 L 72 2 L 72 0 L 54 0 L 54 1.5 L 36 1.5 L 36 5.5 L 18 5.5 L 18 7.5 L 0 7.5 L 0 75.5 Z M 45 89.05 L 81 89.05 L 81 91.05 L 99 91.05 L 99 74.05 L 81 74.05 L 81 72.05 L 45 72.05 L 45 89.05 Z M 103.156 86.761 L 118.744 95.761 L 127.244 81.039 L 111.656 72.039 L 103.156 86.761 Z" vector-effect="non-scaling-stroke"/></g></svg>