0
SECTION
2
HEADER
9
$INSUNITS
70
4
0
ENDSEC
0
SECTION
2
TABLES
0
TABLE
2
LTYPE
0
LTYPE
72
65
70
64
2
CONTINUOUS
3
______
73
0
40
0
0
ENDTAB
0
TABLE
2
LAYER
0
ENDTAB
0
ENDSEC
0
SECTION
2
ENTITIES
0
LINE
8
0
10
-9
20
-8.5
11
9
21
-8.5
0
LINE
8
0
10
9
20
-8.5
11
9
21
-6.5
0
LINE
8
0
10
-9
20
-8.5
11
-9
21
59.5
0
LINE
8
0
10
9
20
59.5
11
-9
21
59.5
0
LINE
8
0
10
9
20
-6.5
11
27
21
-6.5
0
LINE
8
0
10
27
20
-6.5
11
27
21
-2.5
0
LINE
8
0
10
27
20
61.5
11
9
21
61.5
0
LINE
8
0
10
9
20
61.5
11
9
21
59.5
0
LINE
8
0
10
27
20
-2.5
11
45
21
-2.5
0
LINE
8
0
10
45
20
-2.5
11
45
21
-1
0
LINE
8
0
10
45
20
65.5
11
27
21
65.5
0
LINE
8
0
10
27
20
65.5
11
27
21
61.5
0
LINE
8
0
10
45
20
-1
11
63
21
-1
0
LINE
8
0
10
63
20
65
11
63
21
67
0
LINE
8
0
10
63
20
67
11
45
21
67
0
LINE
8
0
10
45
20
67
11
45
21
65.5
0
LINE
8
0
10
63
20
-3
11
81
21
-3
0
LINE
8
0
10
63
20
-1
11
63
21
-3
0
LINE
8
0
10
81
20
63
11
81
21
65
0
LINE
8
0
10
81
20
65
11
63
21
65
0
LINE
8
0
10
81
20
-5
11
99
21
-5
0
LINE
8
0
10
99
20
-5
11
99
21
3.5
0
LINE
8
0
10
81
20
-3
11
81
21
-5
0
LINE
8
0
10
99
20
20.5
11
99
21
63
0
LINE
8
0
10
99
20
63
11
81
21
63
0
LINE
8
0
10
36
20
-22.05
11
72
21
-22.05
0
LINE
8
0
10
36
20
-5.05
11
72
21
-5.05
0
LINE
8
0
10
36
20
-5.05
11
36
21
-22.05
0
LINE
8
0
10
72
20
-7.05
11
72
21
-5.05
0
LINE
8
0
10
72
20
-24.05
11
90
21
-24.05
0
LINE
8
0
10
90
20
-24.05
11
90
21
-7.05
0
LINE
8
0
10
90
20
-7.05
11
72
21
-7.05
0
LINE
8
0
10
72
20
-22.05
11
72
21
-24.05
0
LINE
8
0
10
99
20
3.5
11
117
21
3.5
0
LINE
8
0
10
117
20
3.5
11
117
21
20.5
0
LINE
8
0
10
117
20
20.5
11
99
21
20.5
0
LINE
8
0
10
94.1557714
20
-19.7612159
11
109.7442286
21
-28.7612159
0
LINE
8
0
10
109.7442286
20
-28.7612159
11
118.2442286
21
-14.0387841
0
LINE
8
0
10
118.2442286
20
-14.0387841
11
102.6557714
21
-5.0387841
0
LINE
8
0
10
102.6557714
20
-5.0387841
11
94.1557714
21
-19.7612159
0
ENDSEC
0
EOF