0
SECTION
2
HEADER
9
$INSUNITS
70
4
0
ENDSEC
0
SECTION
2
TABLES
0
TABLE
2
LTYPE
0
LTYPE
72
65
70
64
2
CONTINUOUS
3
______
73
0
40
0
0
ENDTAB
0
TABLE
2
LAYER
0
ENDTAB
0
ENDSEC
0
SECTION
2
ENTITIES
0
LINE
8
0
10
-9
20
9
11
9
21
9
0
LINE
8
0
10
9
20
9
11
9
21
-9
0
LINE
8
0
10
9
20
-9
11
-9
21
-9
0
LINE
8
0
10
-9
20
-9
11
-9
21
9
0
LINE
8
0
10
-9
20
26
11
9
21
26
0
LINE
8
0
10
9
20
26
11
9
21
8
0
LINE
8
0
10
9
20
8
11
-9
21
8
0
LINE
8
0
10
-9
20
8
11
-9
21
26
0
LINE
8
0
10
-9
20
43
11
9
21
43
0
LINE
8
0
10
9
20
43
11
9
21
25
0
LINE
8
0
10
9
20
25
11
-9
21
25
0
LINE
8
0
10
-9
20
25
11
-9
21
43
0
LINE
8
0
10
-9
20
60
11
9
21
60
0
LINE
8
0
10
9
20
60
11
9
21
42
0
LINE
8
0
10
9
20
42
11
-9
21
42
0
LINE
8
0
10
-9
20
42
11
-9
21
60
0
LINE
8
0
10
9
20
11
11
27
21
11
0
LINE
8
0
10
27
20
11
11
27
21
-7
0
LINE
8
0
10
27
20
-7
11
9
21
-7
0
LINE
8
0
10
9
20
-7
11
9
21
11
0
LINE
8
0
10
9
20
28
11
27
21
28
0
LINE
8
0
10
27
20
28
11
27
21
10
0
LINE
8
0
10
27
20
10
11
9
21
10
0
LINE
8
0
10
9
20
10
11
9
21
28
0
LINE
8
0
10
9
20
45
11
27
21
45
0
LINE
8
0
10
27
20
45
11
27
21
27
0
LINE
8
0
10
27
20
27
11
9
21
27
0
LINE
8
0
10
9
20
27
11
9
21
45
0
LINE
8
0
10
9
20
62
11
27
21
62
0
LINE
8
0
10
27
20
62
11
27
21
44
0
LINE
8
0
10
27
20
44
11
9
21
44
0
LINE
8
0
10
9
20
44
11
9
21
62
0
LINE
8
0
10
27
20
15
11
45
21
15
0
LINE
8
0
10
45
20
15
11
45
21
-3
0
LINE
8
0
10
45
20
-3
11
27
21
-3
0
LINE
8
0
10
27
20
-3
11
27
21
15
0
LINE
8
0
10
27
20
32
11
45
21
32
0
LINE
8
0
10
45
20
32
11
45
21
14
0
LINE
8
0
10
45
20
14
11
27
21
14
0
LINE
8
0
10
27
20
14
11
27
21
32
0
LINE
8
0
10
27
20
49
11
45
21
49
0
LINE
8
0
10
45
20
49
11
45
21
31
0
LINE
8
0
10
45
20
31
11
27
21
31
0
LINE
8
0
10
27
20
31
11
27
21
49
0
LINE
8
0
10
27
20
66
11
45
21
66
0
LINE
8
0
10
45
20
66
11
45
21
48
0
LINE
8
0
10
45
20
48
11
27
21
48
0
LINE
8
0
10
27
20
48
11
27
21
66
0
LINE
8
0
10
45
20
16.5
11
63
21
16.5
0
LINE
8
0
10
63
20
16.5
11
63
21
-1.5
0
LINE
8
0
10
63
20
-1.5
11
45
21
-1.5
0
LINE
8
0
10
45
20
-1.5
11
45
21
16.5
0
LINE
8
0
10
45
20
33.5
11
63
21
33.5
0
LINE
8
0
10
63
20
33.5
11
63
21
15.5
0
LINE
8
0
10
63
20
15.5
11
45
21
15.5
0
LINE
8
0
10
45
20
15.5
11
45
21
33.5
0
LINE
8
0
10
45
20
50.5
11
63
21
50.5
0
LINE
8
0
10
63
20
50.5
11
63
21
32.5
0
LINE
8
0
10
63
20
32.5
11
45
21
32.5
0
LINE
8
0
10
45
20
32.5
11
45
21
50.5
0
LINE
8
0
10
45
20
67.5
11
63
21
67.5
0
LINE
8
0
10
63
20
67.5
11
63
21
49.5
0
LINE
8
0
10
63
20
49.5
11
45
21
49.5
0
LINE
8
0
10
45
20
49.5
11
45
21
67.5
0
LINE
8
0
10
63
20
14.5
11
81
21
14.5
0
LINE
8
0
10
81
20
14.5
11
81
21
-3.5
0
LINE
8
0
10
81
20
-3.5
11
63
21
-3.5
0
LINE
8
0
10
63
20
-3.5
11
63
21
14.5
0
LINE
8
0
10
63
20
31.5
11
81
21
31.5
0
LINE
8
0
10
81
20
31.5
11
81
21
13.5
0
LINE
8
0
10
81
20
13.5
11
63
21
13.5
0
LINE
8
0
10
63
20
13.5
11
63
21
31.5
0
LINE
8
0
10
63
20
48.5
11
81
21
48.5
0
LINE
8
0
10
81
20
48.5
11
81
21
30.5
0
LINE
8
0
10
81
20
30.5
11
63
21
30.5
0
LINE
8
0
10
63
20
30.5
11
63
21
48.5
0
LINE
8
0
10
63
20
65.5
11
81
21
65.5
0
LINE
8
0
10
81
20
65.5
11
81
21
47.5
0
LINE
8
0
10
81
20
47.5
11
63
21
47.5
0
LINE
8
0
10
63
20
47.5
11
63
21
65.5
0
LINE
8
0
10
81
20
12.5
11
99
21
12.5
0
LINE
8
0
10
99
20
12.5
11
99
21
-5.5
0
LINE
8
0
10
99
20
-5.5
11
81
21
-5.5
0
LINE
8
0
10
81
20
-5.5
11
81
21
12.5
0
LINE
8
0
10
81
20
29.5
11
99
21
29.5
0
LINE
8
0
10
99
20
29.5
11
99
21
11.5
0
LINE
8
0
10
99
20
11.5
11
81
21
11.5
0
LINE
8
0
10
81
20
11.5
11
81
21
29.5
0
LINE
8
0
10
81
20
46.5
11
99
21
46.5
0
LINE
8
0
10
99
20
46.5
11
99
21
28.5
0
LINE
8
0
10
99
20
28.5
11
81
21
28.5
0
LINE
8
0
10
81
20
28.5
11
81
21
46.5
0
LINE
8
0
10
81
20
63.5
11
99
21
63.5
0
LINE
8
0
10
99
20
63.5
11
99
21
45.5
0
LINE
8
0
10
99
20
45.5
11
81
21
45.5
0
LINE
8
0
10
81
20
45.5
11
81
21
63.5
0
LINE
8
0
10
36
20
-4.55
11
54
21
-4.55
0
LINE
8
0
10
54
20
-4.55
11
54
21
-22.55
0
LINE
8
0
10
54
20
-22.55
11
36
21
-22.55
0
LINE
8
0
10
36
20
-22.55
11
36
21
-4.55
0
LINE
8
0
10
54
20
-4.55
11
72
21
-4.55
0
LINE
8
0
10
72
20
-4.55
11
72
21
-22.55
0
LINE
8
0
10
72
20
-22.55
11
54
21
-22.55
0
LINE
8
0
10
54
20
-22.55
11
54
21
-4.55
0
LINE
8
0
10
72
20
-6.55
11
90
21
-6.55
0
LINE
8
0
10
90
20
-6.55
11
90
21
-24.55
0
LINE
8
0
10
90
20
-24.55
11
72
21
-24.55
0
LINE
8
0
10
72
20
-24.55
11
72
21
-6.55
0
LINE
8
0
10
99
20
21
11
117
21
21
0
LINE
8
0
10
117
20
21
11
117
21
3
0
LINE
8
0
10
117
20
3
11
99
21
3
0
LINE
8
0
10
99
20
3
11
99
21
21
0
LINE
8
0
10
104.7807714
20
-1.3581761
11
120.3692286
21
-10.3581761
0
LINE
8
0
10
120.3692286
20
-10.3581761
11
107.6192286
21
-32.4418239
0
LINE
8
0
10
107.6192286
20
-32.4418239
11
92.0307714
21
-23.4418239
0
LINE
8
0
10
92.0307714
20
-23.4418239
11
104.7807714
21
-1.3581761
0
ENDSEC
0
EOF